<svg xmlns="http://www.w3.org/2000/svg" width="72.627" height="43.266" viewBox="0 0 72.627 43.266" fill="none">
  <path d="M 58.286 35.504 C 58.174 35.541 57.988 35.523 57.726 35.448 C 57.465 35.373 57.204 35.28 56.942 35.168 C 56.681 35.056 56.513 34.963 56.438 34.888 C 56.289 34.739 56.14 34.515 55.99 34.216 C 55.878 33.917 55.878 33.488 55.99 32.928 C 56.102 32.331 56.476 31.565 57.11 30.632 C 57.297 30.259 57.521 29.699 57.782 28.952 C 58.044 28.205 58.305 27.421 58.566 26.6 C 58.865 25.741 59.126 24.976 59.35 24.304 C 59.612 23.632 59.798 23.165 59.91 22.904 C 59.985 22.269 59.948 21.821 59.798 21.56 C 59.686 21.261 59.369 21.093 58.846 21.056 C 58.473 21.056 58.174 21.019 57.95 20.944 C 57.764 20.869 57.67 20.496 57.67 19.824 C 57.745 19.301 57.876 18.947 58.062 18.76 C 58.286 18.536 58.585 18.293 58.958 18.032 C 59.332 17.845 59.705 17.715 60.078 17.64 C 60.489 17.565 60.881 17.547 61.254 17.584 C 61.628 17.621 61.926 17.752 62.15 17.976 C 62.412 18.125 62.58 18.461 62.654 18.984 C 62.729 19.469 62.766 19.973 62.766 20.496 C 62.804 21.019 62.841 21.411 62.878 21.672 C 63.252 21.373 63.756 20.963 64.39 20.44 C 65.062 19.88 65.641 19.357 66.126 18.872 C 66.724 18.461 67.433 18.051 68.254 17.64 C 69.076 17.192 69.673 16.968 70.046 16.968 C 70.457 16.968 70.868 17.08 71.278 17.304 C 71.689 17.491 71.969 17.733 72.118 18.032 C 72.492 18.667 72.66 19.227 72.622 19.712 C 72.622 20.197 72.417 20.701 72.006 21.224 C 71.633 21.709 71.166 22.045 70.606 22.232 C 70.084 22.419 69.748 22.512 69.598 22.512 C 69.374 22.512 69.094 22.344 68.758 22.008 C 68.422 21.672 68.236 21.392 68.198 21.168 C 68.198 21.056 67.956 21.168 67.47 21.504 C 67.022 21.803 66.518 22.195 65.958 22.68 C 65.398 23.128 64.932 23.539 64.558 23.912 C 63.924 24.696 63.252 25.76 62.542 27.104 C 61.833 28.448 60.993 30.072 60.022 31.976 C 59.574 32.909 59.257 33.712 59.07 34.384 C 58.884 35.019 58.622 35.392 58.286 35.504 Z" fill="#0066F5" fill-rule="nonzero"></path>
  <path d="M 40.992 36.4 C 40.507 36.4 40.115 36.307 39.816 36.12 C 39.555 35.933 39.219 35.672 38.808 35.336 C 38.099 34.589 37.595 33.88 37.296 33.208 C 36.997 32.499 36.904 31.827 37.016 31.192 C 37.128 30.893 37.165 30.613 37.128 30.352 C 37.128 30.053 37.128 29.904 37.128 29.904 C 36.941 29.717 36.885 29.605 36.96 29.568 C 37.035 29.493 37.109 29.381 37.184 29.232 C 37.408 29.232 37.483 29.027 37.408 28.616 C 37.333 28.317 37.483 27.664 37.856 26.656 C 38.229 25.648 38.696 24.696 39.256 23.8 C 39.48 23.427 39.816 22.941 40.264 22.344 C 40.712 21.709 41.197 21.093 41.72 20.496 C 42.28 19.861 42.784 19.357 43.232 18.984 C 44.165 18.2 44.987 17.621 45.696 17.248 C 46.405 16.875 47.171 16.595 47.992 16.408 C 48.813 16.221 49.373 16.128 49.672 16.128 C 50.008 16.128 50.456 16.427 51.016 17.024 C 51.875 17.397 52.491 17.845 52.864 18.368 C 53.275 18.891 53.536 19.656 53.648 20.664 C 53.76 21.784 53.667 23.072 53.368 24.528 C 53.107 25.947 52.229 27.72 50.736 29.848 C 49.803 31.192 48.944 32.2 48.16 32.872 C 47.376 33.507 46.443 34.141 45.36 34.776 C 44.576 35.299 43.867 35.691 43.232 35.952 C 42.597 36.176 41.851 36.325 40.992 36.4 Z M 46.368 30.464 C 47.264 29.456 47.973 28.504 48.496 27.608 C 49.056 26.712 49.579 25.573 50.064 24.192 C 50.213 23.781 50.307 23.277 50.344 22.68 C 50.381 22.045 50.363 21.467 50.288 20.944 C 50.251 20.384 50.12 20.067 49.896 19.992 C 49.448 19.731 48.907 19.656 48.272 19.768 C 47.637 19.843 46.947 20.197 46.2 20.832 C 45.043 21.803 44.035 23.016 43.176 24.472 C 42.317 25.891 41.477 27.515 40.656 29.344 C 40.096 30.688 39.965 31.771 40.264 32.592 C 40.6 33.376 41.291 33.656 42.336 33.432 C 43.419 33.171 44.763 32.181 46.368 30.464 Z" fill="#0066F5" fill-rule="nonzero"></path>
  <path d="M 24.119 43.176 C 23.895 43.325 23.634 43.288 23.335 43.064 C 23.074 42.84 22.682 42.429 22.159 41.832 C 21.898 41.533 21.73 41.216 21.655 40.88 C 21.581 40.544 21.599 39.909 21.711 38.976 C 21.861 38.565 21.935 38.173 21.935 37.8 C 21.973 37.427 21.991 37.165 21.991 37.016 C 21.991 36.792 22.047 36.269 22.159 35.448 C 22.309 34.627 22.458 33.768 22.607 32.872 C 22.757 31.939 22.887 31.229 22.999 30.744 C 22.999 30.707 23.018 30.613 23.055 30.464 C 23.093 30.315 23.13 30.184 23.167 30.072 C 23.242 29.736 23.335 29.288 23.447 28.728 C 23.597 28.168 23.727 27.477 23.839 26.656 C 24.138 25.723 24.381 24.808 24.567 23.912 C 24.791 22.979 24.903 22.344 24.903 22.008 C 24.903 21.336 25.165 20.851 25.687 20.552 C 25.725 20.365 25.837 20.085 26.023 19.712 C 26.21 19.301 26.378 18.965 26.527 18.704 C 27.274 16.576 27.89 14.896 28.375 13.664 C 28.861 12.395 29.365 11.293 29.887 10.36 C 30.111 9.725 30.354 9.072 30.615 8.4 C 30.914 7.728 31.213 7.205 31.511 6.832 C 31.698 6.347 32.127 5.731 32.799 4.984 C 33.471 4.2 34.181 3.453 34.927 2.744 C 35.674 1.997 36.271 1.437 36.719 1.064 C 37.541 0.653 38.194 0.373 38.679 0.224 C 39.165 0.075 39.799 0 40.583 0 C 41.293 0 41.759 0.093 41.983 0.28 C 42.245 0.429 42.618 0.728 43.103 1.176 C 43.626 1.736 43.925 2.109 43.999 2.296 C 44.074 2.483 44.111 2.837 44.111 3.36 C 44.037 3.845 43.831 4.48 43.495 5.264 C 43.197 6.011 42.861 6.701 42.487 7.336 C 42.151 7.933 41.871 8.251 41.647 8.288 C 41.199 8.437 40.863 8.4 40.639 8.176 C 40.453 7.915 40.359 7.504 40.359 6.944 C 40.359 6.683 40.285 6.44 40.135 6.216 C 40.023 5.955 39.967 5.824 39.967 5.824 C 39.967 5.712 39.986 5.525 40.023 5.264 C 40.098 4.965 40.21 4.685 40.359 4.424 C 40.546 4.051 40.583 3.771 40.471 3.584 C 40.397 3.397 40.154 3.36 39.743 3.472 C 39.631 3.547 39.333 3.771 38.847 4.144 C 38.362 4.517 37.839 4.947 37.279 5.432 C 36.757 5.88 36.29 6.309 35.879 6.72 C 35.469 7.131 35.263 7.392 35.263 7.504 C 35.263 7.504 35.189 7.672 35.039 8.008 C 34.89 8.307 34.61 8.699 34.199 9.184 C 33.938 9.557 33.695 9.931 33.471 10.304 C 33.285 10.64 33.191 10.845 33.191 10.92 C 33.191 11.069 33.173 11.237 33.135 11.424 C 33.135 11.573 33.042 11.648 32.855 11.648 C 32.855 11.648 32.799 11.816 32.687 12.152 C 32.575 12.488 32.37 12.917 32.071 13.44 C 31.922 13.813 31.735 14.205 31.511 14.616 C 31.287 14.989 31.101 15.251 30.951 15.4 L 31.007 15.4 C 31.007 15.4 30.914 15.643 30.727 16.128 C 30.578 16.576 30.41 17.061 30.223 17.584 C 30.037 18.069 29.943 18.349 29.943 18.424 C 29.943 18.573 30.205 18.648 30.727 18.648 C 31.287 18.648 31.941 18.592 32.687 18.48 C 33.434 18.331 34.106 18.181 34.703 18.032 C 35.226 17.883 35.581 17.808 35.767 17.808 C 35.954 17.808 36.327 17.883 36.887 18.032 C 37.186 18.219 37.429 18.499 37.615 18.872 C 37.839 19.208 37.989 19.544 38.063 19.88 C 38.175 20.179 38.175 20.403 38.063 20.552 C 38.026 20.701 37.615 20.907 36.831 21.168 C 36.047 21.429 35.263 21.635 34.479 21.784 C 33.807 21.933 32.986 22.101 32.015 22.288 C 31.045 22.475 30.186 22.643 29.439 22.792 C 28.73 22.941 28.375 23.072 28.375 23.184 C 28.226 23.184 28.095 23.277 27.983 23.464 C 27.871 23.613 27.815 23.744 27.815 23.856 C 27.815 24.379 27.741 24.771 27.591 25.032 C 27.517 25.256 27.386 25.704 27.199 26.376 C 27.013 27.048 26.807 27.795 26.583 28.616 C 26.397 29.437 26.229 30.184 26.079 30.856 C 25.967 31.528 25.911 31.976 25.911 32.2 C 25.687 32.461 25.557 32.797 25.519 33.208 C 25.482 33.581 25.463 33.917 25.463 34.216 C 25.314 34.515 25.221 34.795 25.183 35.056 C 25.146 35.28 25.127 35.467 25.127 35.616 C 25.127 35.653 25.127 35.728 25.127 35.84 C 25.127 35.952 25.109 36.064 25.071 36.176 C 25.034 36.549 24.978 37.035 24.903 37.632 C 24.866 38.267 24.847 38.883 24.847 39.48 L 24.679 41.104 C 24.642 41.589 24.586 42 24.511 42.336 C 24.437 42.709 24.306 42.989 24.119 43.176 Z" fill="#0066F5" fill-rule="nonzero"></path>
  <path d="M 14.231 25.984 C 13.41 25.984 12.644 25.853 11.935 25.592 C 11.263 25.293 10.572 24.901 9.863 24.416 C 9.49 24.192 9.042 23.875 8.519 23.464 C 8.034 23.016 7.418 22.661 6.671 22.4 C 6.074 22.213 5.551 22.288 5.103 22.624 C 4.692 22.923 4.282 23.277 3.871 23.688 C 3.46 24.061 2.994 24.285 2.471 24.36 C 2.434 24.584 2.266 24.845 1.967 25.144 C 1.706 25.405 1.5 25.443 1.351 25.256 C 0.94 25.144 0.604 24.957 0.343 24.696 C 0.082 24.397 -0.03 24.155 0.007 23.968 C 0.044 23.744 0.25 23.389 0.623 22.904 C 0.996 22.419 1.575 21.896 2.359 21.336 C 3.18 20.776 4.207 20.272 5.439 19.824 C 6.186 19.712 6.988 19.787 7.847 20.048 C 8.706 20.309 9.452 20.757 10.087 21.392 C 10.946 22.176 11.73 22.755 12.439 23.128 C 13.148 23.464 13.858 23.483 14.567 23.184 C 14.866 23.147 15.332 23.016 15.967 22.792 C 16.639 22.568 17.05 22.419 17.199 22.344 L 18.655 21.952 C 18.73 21.877 18.823 21.784 18.935 21.672 C 19.047 21.56 19.178 21.485 19.327 21.448 C 19.364 21.336 19.626 21.261 20.111 21.224 C 20.634 21.037 20.951 21.075 21.063 21.336 C 21.175 21.56 21.194 21.859 21.119 22.232 C 21.119 22.381 21.044 22.587 20.895 22.848 C 20.783 23.109 20.559 23.445 20.223 23.856 L 19.103 24.36 C 18.58 24.472 18.02 24.677 17.423 24.976 C 16.863 25.275 16.396 25.499 16.023 25.648 C 15.351 25.872 14.754 25.984 14.231 25.984 Z" fill="#0066F5" fill-rule="nonzero"></path>
</svg>