<svg xmlns="http://www.w3.org/2000/svg" width="54" height="12" viewBox="0 0 54 12" fill="none">
  <path d="M 52.867 11.801 C 52.264 11.801 51.793 11.645 51.454 11.335 C 51.115 11.025 50.945 10.554 50.945 9.922 L 50.961 0 L 52.702 0 L 52.702 9.756 C 52.702 10.155 52.899 10.355 53.294 10.355 L 54 10.355 L 54 11.801 L 52.867 11.801 Z" fill="currentColor" fill-rule="nonzero"></path>
  <path d="M 44.228 12 C 43.308 12 42.58 11.789 42.043 11.368 C 41.507 10.936 41.238 10.343 41.238 9.59 C 41.238 8.837 41.463 8.244 41.912 7.812 C 42.361 7.38 43.067 7.069 44.031 6.881 L 47.037 6.299 C 47.037 4.936 46.412 4.255 45.164 4.255 C 44.08 4.255 43.423 4.748 43.193 5.734 L 41.386 5.618 C 41.55 4.731 41.961 4.033 42.618 3.524 C 43.286 3.014 44.135 2.759 45.164 2.759 C 46.336 2.759 47.228 3.08 47.841 3.723 C 48.466 4.355 48.778 5.247 48.778 6.399 L 48.778 9.839 C 48.778 10.05 48.816 10.199 48.893 10.288 C 48.969 10.366 49.09 10.404 49.254 10.404 L 49.566 10.404 L 49.566 11.801 C 49.457 11.834 49.243 11.85 48.926 11.85 C 48.411 11.85 48.011 11.74 47.726 11.518 C 47.442 11.296 47.261 10.936 47.184 10.438 C 46.965 10.903 46.588 11.28 46.051 11.568 C 45.514 11.856 44.907 12 44.228 12 Z M 44.523 10.604 C 45.29 10.604 45.898 10.382 46.347 9.939 C 46.807 9.496 47.037 8.914 47.037 8.194 L 47.037 7.629 L 44.491 8.127 C 43.976 8.227 43.604 8.382 43.374 8.593 C 43.155 8.803 43.045 9.08 43.045 9.424 C 43.045 9.801 43.171 10.094 43.423 10.305 C 43.686 10.504 44.053 10.604 44.523 10.604 Z" fill="currentColor" fill-rule="nonzero"></path>
  <path d="M 36.48 12 C 35.286 12 34.35 11.729 33.671 11.186 C 32.992 10.643 32.62 9.917 32.554 9.008 L 34.361 8.925 C 34.525 9.989 35.232 10.521 36.48 10.521 C 37.039 10.521 37.471 10.432 37.778 10.255 C 38.095 10.066 38.254 9.784 38.254 9.407 C 38.254 9.175 38.199 8.992 38.09 8.859 C 37.98 8.715 37.778 8.593 37.482 8.493 C 37.186 8.382 36.748 8.277 36.168 8.177 C 35.303 8.022 34.624 7.828 34.131 7.596 C 33.638 7.363 33.288 7.08 33.08 6.748 C 32.872 6.416 32.768 6 32.768 5.501 C 32.768 4.67 33.074 4.006 33.688 3.507 C 34.301 3.008 35.161 2.759 36.267 2.759 C 37.329 2.759 38.172 3.03 38.796 3.573 C 39.42 4.116 39.798 4.814 39.929 5.668 L 38.139 5.767 C 38.051 5.291 37.843 4.92 37.515 4.654 C 37.197 4.377 36.776 4.238 36.25 4.238 C 35.703 4.238 35.286 4.349 35.002 4.571 C 34.717 4.781 34.575 5.069 34.575 5.435 C 34.575 5.823 34.717 6.111 35.002 6.299 C 35.297 6.488 35.807 6.643 36.529 6.765 C 37.427 6.909 38.134 7.097 38.648 7.33 C 39.163 7.551 39.524 7.828 39.732 8.161 C 39.951 8.482 40.061 8.892 40.061 9.391 C 40.061 10.199 39.727 10.837 39.059 11.302 C 38.402 11.767 37.542 12 36.48 12 Z" fill="currentColor" fill-rule="nonzero"></path>
  <path d="M 27.304 12 C 26.472 12 25.744 11.812 25.12 11.435 C 24.495 11.058 24.008 10.521 23.658 9.823 C 23.318 9.125 23.148 8.31 23.148 7.38 C 23.148 6.449 23.318 5.634 23.658 4.936 C 24.008 4.238 24.495 3.701 25.12 3.324 C 25.744 2.947 26.472 2.759 27.304 2.759 C 28.125 2.759 28.848 2.953 29.472 3.341 C 30.108 3.717 30.595 4.255 30.934 4.953 C 31.274 5.64 31.443 6.449 31.443 7.38 C 31.443 8.31 31.274 9.125 30.934 9.823 C 30.595 10.51 30.108 11.047 29.472 11.435 C 28.848 11.812 28.125 12 27.304 12 Z M 27.304 10.471 C 28.038 10.471 28.607 10.199 29.012 9.657 C 29.429 9.114 29.637 8.355 29.637 7.38 C 29.637 6.404 29.429 5.645 29.012 5.102 C 28.607 4.56 28.038 4.288 27.304 4.288 C 26.571 4.288 25.996 4.56 25.579 5.102 C 25.163 5.645 24.955 6.404 24.955 7.38 C 24.955 8.355 25.163 9.114 25.579 9.657 C 25.996 10.199 26.571 10.471 27.304 10.471 Z" fill="currentColor" fill-rule="nonzero"></path>
  <path d="M 21.05 11.801 C 20.448 11.801 19.977 11.645 19.637 11.335 C 19.298 11.025 19.128 10.554 19.128 9.922 L 19.145 0 L 20.886 0 L 20.886 9.756 C 20.886 10.155 21.083 10.355 21.477 10.355 L 22.183 10.355 L 22.183 11.801 L 21.05 11.801 Z" fill="currentColor" fill-rule="nonzero"></path>
  <path d="M 13.353 12 C 12.521 12 11.792 11.812 11.168 11.435 C 10.544 11.058 10.057 10.521 9.706 9.823 C 9.367 9.125 9.197 8.31 9.197 7.38 C 9.197 6.449 9.367 5.634 9.706 4.936 C 10.057 4.238 10.544 3.701 11.168 3.324 C 11.792 2.947 12.521 2.759 13.353 2.759 C 14.174 2.759 14.897 2.953 15.521 3.341 C 16.156 3.717 16.643 4.255 16.983 4.953 C 17.322 5.64 17.492 6.449 17.492 7.38 C 17.492 8.31 17.322 9.125 16.983 9.823 C 16.643 10.51 16.156 11.047 15.521 11.435 C 14.897 11.812 14.174 12 13.353 12 Z M 13.353 10.471 C 14.087 10.471 14.656 10.199 15.061 9.657 C 15.477 9.114 15.685 8.355 15.685 7.38 C 15.685 6.404 15.477 5.645 15.061 5.102 C 14.656 4.56 14.087 4.288 13.353 4.288 C 12.619 4.288 12.044 4.56 11.628 5.102 C 11.212 5.645 11.004 6.404 11.004 7.38 C 11.004 8.355 11.212 9.114 11.628 9.657 C 12.044 10.199 12.619 10.471 13.353 10.471 Z" fill="currentColor" fill-rule="nonzero"></path>
  <path d="M 0 0 L 1.774 0 L 1.774 5.634 L 6.685 0 L 8.837 0 L 4.369 5.152 L 9.133 11.801 L 7.047 11.801 L 3.187 6.416 L 1.774 8.011 L 1.774 11.801 L 0 11.801 L 0 0 Z" fill="currentColor" fill-rule="nonzero"></path>
</svg>